:SAMPLES-PER-SECOND 30
:FRAME-RANGE 1-663
:FULLY-SPECIFIED
:DEGREES
146
root  -23.7887 32.0291 126.459 -149.45 64.685 -176.549
RightUpLeg  -66.8426 -9.94665 5.37316
RightLeg  78.7375 -1.64732 -11.5741
RightFoot  -23.2573 0.0404694 1.89768
RightToes  -3.4386e-010 1.2921e-014 -6.02303e-014
Spine  39.793 -1.83578 2.40025
Spine1  7.52928 3.50449 -11.8753
HEad  2.04472 -6.51493 -11.7592
LeftShoulder1  2.97523 -14.367 -9.71251
LeftArm  -10.6395 -51.8431 -50.7918
LeftForeArm  -8.42188 5.15112 -7.51299
LeftHand  -0.0498385 3.98476 2.50535
RightShoulder  1.93841 11.8793 5.05267
RightArm  -41.7614 60.3207 30.1059
RightForeArm  48.6195 -4.21391 -6.87951
RightHand  -0.231338 -3.19169 -11.6644
LeftUpLeg  -66.7318 -8.69801 18.0106
LeftLeg  58.9366 2.39692 4.88963
LeftFoot  -20.7842 -0.712968 -10.1176
LeftToes  -7.12384e-010 -7.51861e-011 -8.34901e-011
147
root  -23.2506 32.5409 126.819 -149.902 62.8491 -176.547
RightUpLeg  -64.1992 -5.24323 -2.15466
RightLeg  75.6038 -1.97596 -10.0778
RightFoot  -23.4735 -0.0248266 1.26284
RightToes  -3.4386e-010 1.2921e-014 -6.02303e-014
Spine  39.2585 -1.5428 3.03753
Spine1  8.15459 3.87734 -11.3255
HEad  2.524 -7.16914 -11.978
LeftShoulder1  3.20591 -15.2127 -10.2371
LeftArm  -10.8958 -51.5279 -51.8704
LeftForeArm  -7.8429 5.74627 -7.17128
LeftHand  -0.0486405 4.06829 2.52218
RightShoulder  2.0709 11.1776 6.78097
RightArm  -41.5774 59.4907 29.3371
RightForeArm  49.7963 -4.23428 -6.58886
RightHand  -0.251427 -2.99469 -11.7155
LeftUpLeg  -64.3802 -9.6705 19.3983
LeftLeg  55.679 2.33311 4.21821
LeftFoot  -20.1203 -0.694293 -10.5888
LeftToes  -7.12384e-010 -7.51861e-011 -8.34901e-011
148
root  -22.6744 32.925 127.241 -150.683 60.8375 -177.035
RightUpLeg  -62.1262 -1.12981 -8.9708
RightLeg  70.7828 -2.38833 -8.47453
RightFoot  -24.5708 0.00987364 1.52125
RightToes  -3.4386e-010 1.2921e-014 -6.02303e-014
Spine  38.9084 -1.88326 3.1476
Spine1  8.4986 3.40882 -10.639
HEad  2.58871 -6.58513 -12.2622
LeftShoulder1  3.22138 -14.6584 -10.9308
LeftArm  -10.6259 -51.0727 -52.3991
LeftForeArm  -8.72257 5.51239 -7.19575
LeftHand  -0.0492494 3.98565 2.45412
RightShoulder  2.09482 11.4098 6.71076
RightArm  -41.5177 59.013 29.9869
RightForeArm  50.3455 -4.16149 -6.91428
RightHand  -0.211777 -3.37758 -11.5708
LeftUpLeg  -62.4306 -10.3289 20.524
LeftLeg  52.7325 1.84233 3.1059
LeftFoot  -19.6778 -0.681462 -10.9388
LeftToes  -7.12384e-010 -7.51861e-011 -8.34901e-011
149
root  -22.0524 33.2681 127.678 -150.918 59.1887 -177.15
RightUpLeg  -60.6058 2.48769 -14.8116
RightLeg  64.9952 -3.40987 -8.56108
RightFoot  -23.951 -0.00576841 1.41672
RightToes  -3.4386e-010 1.2921e-014 -6.02303e-014
Spine  38.7775 -1.97496 3.21541
Spine1  8.48136 2.95908 -9.53087
HEad  2.69842 -6.03869 -12.4839
LeftShoulder1  3.25768 -14.3339 -11.5276
LeftArm  -10.5005 -50.5061 -52.5474
LeftForeArm  -9.7999 5.46685 -7.22356
LeftHand  -0.0541523 3.84114 2.66149
RightShoulder  2.05632 11.4593 6.36314
RightArm  -41.2568 58.8959 30.9363
RightForeArm  50.6487 -4.11033 -7.15492
RightHand  -0.191209 -3.56156 -11.379
LeftUpLeg  -60.5472 -9.97307 21.354
LeftLeg  49.8941 0.898404 1.61937
LeftFoot  -19.2733 -0.65594 -11.0954
LeftToes  -7.12384e-010 -7.51861e-011 -8.34901e-011
150
root  -21.395 33.4719 128.212 -151.463 57.5164 -177.734
RightUpLeg  -59.1328 4.49923 -20.4081
RightLeg  58.2036 0.29315 0.0576663
RightFoot  -22.614 -0.300835 -1.49719
RightToes  -3.4386e-010 1.2921e-014 -6.02303e-014
Spine  38.515 -2.12375 3.1122
Spine1  8.35324 2.6389 -8.90766
HEad  2.83298 -5.89154 -12.4711
LeftShoulder1  3.36908 -14.3381 -12.2217
LeftArm  -11.0676 -50.1835 -52.4714
LeftForeArm  -9.4813 5.95554 -6.93613
LeftHand  -0.0286135 3.65836 0.617442
RightShoulder  2.06329 11.1756 6.72395
RightArm  -40.7351 59.0725 31.4094
RightForeArm  50.2945 -4.16057 -6.92728
RightHand  -0.167046 -3.83783 -11.527
LeftUpLeg  -59.1412 -9.31117 22.0123
LeftLeg  47.5658 -0.427566 -0.0462794
LeftFoot  -18.7731 -0.645255 -11.6307
LeftToes  -7.12384e-010 -7.51861e-011 -8.34901e-011
151
root  -20.6846 33.4825 128.756 -151.584 56.3938 -178.286
RightUpLeg  -58.6051 5.9537 -24.6465
RightLeg  52.0653 4.32444 5.57582
RightFoot  -20.6609 -0.133295 0.0801693
RightToes  -3.4386e-010 1.2921e-014 -6.02303e-014
Spine  38.0403 -2.66051 3.171
Spine1  8.17554 2.19743 -9.31314
HEad  2.61585 -5.18734 -12.2945
LeftShoulder1  3.30152 -14.1678 -12.0011
LeftArm  -12.2965 -49.4696 -51.7162
LeftForeArm  -10.4035 6.14263 -6.46962
LeftHand  -0.0262246 3.86004 0.422645
RightShoulder  2.04339 11.163 6.58286
RightArm  -40.0179 59.8572 33.0041
RightForeArm  50.094 -4.14728 -7.03267
RightHand  -0.203047 -3.47046 -11.5822
LeftUpLeg  -58.4948 -8.4675 22.8455
LeftLeg  46.3104 -1.50993 -1.24968
LeftFoot  -18.7525 -0.707047 -12.6052
LeftToes  -7.12384e-010 -7.51861e-011 -8.34901e-011
152
root  -19.9315 33.4533 129.414 -151.157 55.1284 -178.156
RightUpLeg  -58.5381 7.32973 -26.4479
RightLeg  47.6245 5.59598 6.22324
RightFoot  -17.9059 0.0745847 3.41501
RightToes  -3.4386e-010 1.2921e-014 -6.02303e-014
Spine  37.8699 -2.61853 3.25083
Spine1  8.01852 2.03856 -8.56939
HEad  2.39298 -4.91088 -12.595
LeftShoulder1  3.57401 -15.0664 -12.6119
LeftArm  -13.5313 -48.8092 -48.9864
LeftForeArm  -12.4531 6.66589 -6.31363
LeftHand  -0.0193751 3.08078 0.208189
RightShoulder  1.98984 10.9529 6.39311
RightArm  -39.3149 60.9763 34.1961
RightForeArm  49.654 -4.16662 -6.99091
RightHand  -0.203853 -3.50285 -11.8315
LeftUpLeg  -57.9486 -7.54864 24.3682
LeftLeg  45.1349 -2.45303 -2.20616
LeftFoot  -18.4597 -0.732417 -13.4956
LeftToes  -7.12384e-010 -7.51861e-011 -8.34901e-011
153
root  -19.0474 33.2011 130.275 -151.49 53.15 -178.792
RightUpLeg  -58.6014 8.32118 -27.159
RightLeg  46.6181 5.19055 5.5515
RightFoot  -17.3415 0.598533 13.6163
RightToes  -3.4386e-010 1.2921e-014 -6.02303e-014
Spine  37.9061 -2.49942 2.69185
Spine1  7.70104 1.70913 -7.46004
HEad  2.08516 -4.42677 -12.9862
LeftShoulder1  3.63321 -15.1988 -12.8102
LeftArm  -14.938 -48.5135 -47.5136
LeftForeArm  -12.6229 6.60225 -5.95407
LeftHand  -0.0212414 3.2262 0.206158
RightShoulder  1.91443 10.817 5.94142
RightArm  -38.2148 62.1192 35.7586
RightForeArm  48.4448 -4.23265 -6.79981
RightHand  -0.193296 -3.63816 -12.0201
LeftUpLeg  -57.9584 -7.11832 26.2846
LeftLeg  44.4935 -3.64619 -3.40418
LeftFoot  -18.6427 -0.873818 -15.3606
LeftToes  -7.12384e-010 -7.51861e-011 -8.34901e-011
154
root  -18.0952 32.8233 131.314 -153.078 50.444 178.539
RightUpLeg  -58.9144 6.62697 -26.3053
RightLeg  49.2401 5.38761 6.33826
RightFoot  -20.8648 1.22946 16.3668
RightToes  -3.4386e-010 1.2921e-014 -6.02303e-014
Spine  37.7034 -2.07413 1.33704
Spine1  7.70411 1.25336 -5.73472
HEad  1.42632 -5.02328 -13.0055
LeftShoulder1  3.8907 -16.0959 -13.264
LeftArm  -16.5671 -48.9321 -45.1573
LeftForeArm  -13.1675 6.53247 -5.60708
LeftHand  -0.0124456 2.73541 -0.110078
RightShoulder  1.75624 10.2068 5.3067
RightArm  -37.2441 63.0652 36.7029
RightForeArm  46.8005 -4.34607 -6.39769
RightHand  -0.239647 -3.1533 -11.9088
LeftUpLeg  -58.7635 -7.80385 27.9481
LeftLeg  43.2042 -4.64303 -4.24084
LeftFoot  -18.484 -0.9888 -17.49
LeftToes  -7.12384e-010 -7.51861e-011 -8.34901e-011
155
root  -17.1879 32.6128 132.358 -153.885 47.4328 176.715
RightUpLeg  -59.8137 4.8163 -23.8133
RightLeg  52.441 4.0361 5.25383
RightFoot  -23.1338 1.26353 13.7028
RightToes  -3.4386e-010 1.2921e-014 -6.02303e-014
Spine  38.5262 -1.43283 0.747453
Spine1  7.45872 0.842537 -3.23745
HEad  0.630162 -5.78439 -12.9486
LeftShoulder1  4.17081 -16.9492 -13.8472
LeftArm  -18.1563 -49.9442 -42.7531
LeftForeArm  -13.9001 6.46479 -5.29975
LeftHand  -0.0118149 3.06561 -0.223633
RightShoulder  1.60896 9.89491 4.38909
RightArm  -36.9995 63.6044 36.4714
RightForeArm  44.6366 -4.47116 -5.98769
RightHand  -0.27178 -2.77692 -11.6791
LeftUpLeg  -59.562 -8.8799 30.3511
LeftLeg  41.0486 -5.33535 -4.56149
LeftFoot  -16.9994 -0.908116 -20.2366
LeftToes  -7.12384e-010 -7.51861e-011 -8.34901e-011
156
root  -16.3005 32.465 133.459 -153.975 44.3568 175.212
RightUpLeg  -61.6902 3.66172 -22.026
RightLeg  55.6803 2.86642 4.10587
RightFoot  -23.9924 1.19488 12.2121
RightToes  -3.4386e-010 1.2921e-014 -6.02303e-014
Spine  39.7822 -0.877812 -0.0386589
Spine1  6.7516 0.586671 -1.0976
HEad  -0.463868 -6.2778 -12.9358
LeftShoulder1  4.40195 -17.8046 -14.1233
LeftArm  -19.8655 -51.3659 -39.9514
LeftForeArm  -14.022 6.42126 -5.05722
LeftHand  -0.00672058 2.82861 -0.335021
RightShoulder  1.50288 9.77562 3.5944
RightArm  -38.0313 65.1552 34.8044
RightForeArm  43.4296 -4.49748 -5.9957
RightHand  -0.328941 -2.21898 -11.7959
LeftUpLeg  -61.4814 -9.0406 32.5646
LeftLeg  39.636 -6.28325 -5.16345
LeftFoot  -13.5772 -0.362635 -22.4576
LeftToes  -7.12384e-010 -7.51861e-011 -8.34901e-011
157
root  -15.4737 32.3301 134.489 -153.387 41.1655 174.434
RightUpLeg  -63.5314 2.53041 -19.7705
RightLeg  58.1671 1.90454 2.86235
RightFoot  -24.335 0.957793 9.84319
RightToes  -3.4386e-010 1.2921e-014 -6.02303e-014
Spine  41.0241 -0.705955 -0.502477
Spine1  6.18053 0.165966 0.827167
HEad  -1.71739 -5.7583 -12.8742
LeftShoulder1  4.40591 -18.0978 -13.8264
LeftArm  -21.2688 -52.2297 -37.5957
LeftForeArm  -14.3914 6.37764 -4.84769
LeftHand  -0.00408767 2.80898 -0.251235
RightShoulder  1.44726 9.92727 2.96857
RightArm  -39.3431 67.1279 32.3862
RightForeArm  42.6279 -4.56057 -5.7405
RightHand  -0.277337 -2.79269 -12.0014
LeftUpLeg  -64.5756 -8.29105 32.9275
LeftLeg  41.4473 -4.84093 -4.16493
LeftFoot  -10.5252 0.17057 -15.0612
LeftToes  -7.12384e-010 -7.51861e-011 -8.34901e-011
158
root  -14.833 32.0687 135.34 -153.175 38.9097 174.377
RightUpLeg  -64.8303 1.15901 -17.0594
RightLeg  60.555 1.85731 3.07123
RightFoot  -25.2288 0.824118 8.16347
RightToes  -3.4386e-010 1.2921e-014 -6.02303e-014
Spine  41.8511 -1.10547 -0.0216914
Spine1  6.8198 -0.149938 1.10132
HEad  -2.71021 -4.71867 -12.7594
LeftShoulder1  4.3737 -18.3328 -13.4142
LeftArm  -22.5238 -53.1002 -34.8147
LeftForeArm  -14.5354 6.37405 -4.84571
LeftHand  -0.000226576 2.5289 -0.564908
RightShoulder  1.42697 10.133 2.60823
RightArm  -41.8049 69.7003 29.4994
RightForeArm  42.5 -4.50895 -6.04742
RightHand  -0.287337 -2.69014 -11.9918
LeftUpLeg  -67.6548 -6.63666 30.8604
LeftLeg  49.3605 0.115382 0.60844
LeftFoot  -11.9785 -0.000636549 -12.9296
LeftToes  -7.12384e-010 -7.51861e-011 -8.34901e-011
